<svg width="32" height="32" viewBox="0 0 32 32" fill="none" xmlns="http://www.w3.org/2000/svg">
<rect width="32" height="32" rx="16" fill="url(#paint0_linear_358_39)"/>
<g clip-path="url(#clip0_358_39)">
<path d="M6.13945 12.1665C6.57264 11.7149 7.09494 11.3582 7.67323 11.1191C8.25152 10.8799 8.87318 10.7635 9.49882 10.7773C10.9072 10.7773 12.069 11.2302 12.9748 12.1359C13.8805 13.0417 14.3315 14.2054 14.3315 15.6176C14.3454 16.2426 14.2294 16.8637 13.9909 17.4416C13.7525 18.0195 13.3967 18.5417 12.9461 18.9751C12.4932 19.4206 11.9552 19.7705 11.3643 20.0039C10.7734 20.2373 10.1416 20.3495 9.50646 20.3337C8.88331 20.3453 8.2642 20.2314 7.68602 19.9987C7.10784 19.7659 6.58243 19.4192 6.1411 18.9791C5.69976 18.539 5.35154 18.0146 5.11718 17.4371C4.88282 16.8596 4.76712 16.2408 4.77698 15.6176C4.76049 14.9803 4.87265 14.3462 5.10674 13.7533C5.34084 13.1603 5.69207 12.6207 6.13945 12.1665Z" fill="white"/>
<path d="M19.0195 12.1665C19.4525 11.7152 19.9745 11.3587 20.5524 11.1196C21.1303 10.8805 21.7516 10.7639 22.3769 10.7773C23.7948 10.7773 24.9471 11.2302 25.8624 12.1359C26.7777 13.0417 27.2211 14.2035 27.2211 15.6157C27.2347 16.2408 27.1184 16.862 26.8796 17.44C26.6408 18.0179 26.2847 18.5399 25.8337 18.9731C25.378 19.4196 24.8371 19.77 24.2433 20.0034C23.6494 20.2368 23.0147 20.3485 22.3769 20.3318C21.7676 20.3419 21.1623 20.2319 20.5955 20.008C20.0287 19.7842 19.5115 19.4509 19.0736 19.0271C18.6357 18.6034 18.2855 18.0975 18.0431 17.5384C17.8007 16.9793 17.6708 16.3779 17.6608 15.7686C17.6608 15.7189 17.6608 15.6692 17.6608 15.6176C17.6441 14.9806 17.7558 14.3468 17.9893 13.7539C18.2227 13.161 18.573 12.6212 19.0195 12.1665Z" fill="white"/>
</g>
<defs>
<linearGradient id="paint0_linear_358_39" x1="0" y1="0" x2="32" y2="32" gradientUnits="userSpaceOnUse">
<stop stop-color="#E12727"/>
<stop offset="0.473853" stop-color="#851D41"/>
<stop offset="1" stop-color="#1F125D"/>
</linearGradient>
<clipPath id="clip0_358_39">
<rect y="6" width="32" height="19.1129" rx="9.55643" fill="white"/>
</clipPath>
</defs>
</svg>
