<svg width="123" height="40" viewBox="0 0 123 40" fill="none" xmlns="http://www.w3.org/2000/svg">
<path d="M42.4054 2.06238V37.9148H32.4905V17.6105L25.8256 37.9148H17.2313L10.5766 17.6105V37.9148H0.558594V2.06238H12.8155L21.6574 25.3587L30.2517 2.06238H42.4054Z" fill="white"/>
<path d="M63.6605 12.0262C65.1049 12.8516 66.2502 14.1103 66.9414 15.6166V11.0564H76.9079V39.6145H66.9414V35.0852C66.2502 36.5916 65.1049 37.8503 63.6605 38.6756C62.0923 39.5629 60.3074 40.0066 58.5019 39.9756C56.3146 40.0066 54.1583 39.3979 52.3116 38.2217C50.4132 36.9733 48.9172 35.209 47.9886 33.1353C46.8847 30.6798 46.3482 28.0179 46.4101 25.3251C46.3482 22.6426 46.8847 19.9911 47.9886 17.5459C48.9275 15.4825 50.4235 13.7285 52.3116 12.4801C54.1583 11.304 56.3146 10.6952 58.5019 10.7262C60.3074 10.6952 62.0923 11.1389 63.6605 12.0262ZM53.3433 1.17242C54.0758 0.398627 55.1075 -0.0243802 56.1702 0.00657158C58.3265 -0.0862837 60.1423 1.58511 60.2352 3.7311C60.2352 3.84459 60.2352 3.95808 60.2352 4.07157C60.2765 5.13425 59.8638 6.17629 59.1106 6.92945C58.3368 7.68261 57.2948 8.0953 56.2115 8.06435C54.0655 8.10562 52.2806 6.40327 52.2393 4.25728C52.2393 4.20569 52.2393 4.15411 52.2393 4.10252C52.1981 3.00889 52.6211 1.94622 53.3845 1.17242H53.3433ZM57.9551 21.0331C56.9337 22.2196 56.4075 23.7569 56.5004 25.3251C56.4075 26.914 56.9337 28.4719 57.9551 29.679C58.9352 30.721 60.3177 31.2782 61.7415 31.2266C63.155 31.2575 64.5169 30.6798 65.4661 29.6274C66.4978 28.4306 67.024 26.883 66.9414 25.3045C67.024 23.7466 66.4978 22.2093 65.4661 21.0331C64.5169 19.9911 63.1653 19.4133 61.7518 19.4546C60.3177 19.403 58.9249 19.9808 57.9551 21.0331ZM64.2073 1.17242C64.9399 0.408944 65.9613 -0.0140629 67.024 0.00657158C69.1699 -0.117235 71.0167 1.52321 71.1509 3.6692C71.1509 3.80332 71.1509 3.93745 71.1509 4.07157C71.1715 5.15488 70.7279 6.18661 69.9437 6.92945C69.1699 7.68261 68.1176 8.0953 67.0343 8.06435C64.8883 8.08498 63.1343 6.35168 63.1137 4.20569C63.1137 4.16443 63.1137 4.11284 63.1137 4.07157C63.0724 2.99858 63.4748 1.94622 64.2177 1.17242H64.2073Z" fill="white"/>
<path d="M98.1625 11.0319C99.5863 11.8676 100.721 13.1159 101.412 14.6223V0.993164H111.441V38.6202H101.412V34.0909C100.721 35.5972 99.5863 36.8456 98.1625 37.6813C96.5943 38.5789 94.8094 39.0226 93.0039 38.9813C90.8166 39.0122 88.6603 38.4035 86.8135 37.2274C84.9151 35.979 83.4191 34.2147 82.4906 32.141C81.3866 29.6854 80.8501 27.0236 80.912 24.3308C80.8501 21.6483 81.3866 18.9968 82.4906 16.5516C83.4191 14.4881 84.9254 12.7342 86.8135 11.4858C88.6603 10.3096 90.8166 9.70093 93.0039 9.73188C94.8094 9.69061 96.5943 10.1343 98.1625 11.0319ZM92.4983 20.0388C91.4769 21.2253 90.9507 22.7626 91.0436 24.3308C90.9507 25.9197 91.4769 27.4776 92.4983 28.6847C93.4785 29.7267 94.861 30.2942 96.2847 30.2323C97.6776 30.2529 99.0188 29.6751 99.9577 28.6331C101 27.4466 101.536 25.8887 101.443 24.3102C101.526 22.7419 100.989 21.215 99.9577 20.0388C97.9252 17.9754 94.603 17.9444 92.5293 19.9769C92.5086 19.9975 92.488 20.0182 92.4674 20.0388H92.4983Z" fill="white"/>
<path d="M121.13 33.1884C121.666 33.4773 122.11 33.9209 122.409 34.4574C123.028 35.6336 123.028 37.047 122.409 38.2232C122.11 38.7597 121.666 39.2137 121.13 39.5129C119.933 40.1319 118.52 40.1319 117.323 39.5129C116.776 39.224 116.332 38.7803 116.023 38.2438C115.404 37.0677 115.404 35.6542 116.023 34.478C116.322 33.9416 116.776 33.4979 117.323 33.209C118.52 32.59 119.933 32.59 121.13 33.209V33.1884ZM120.934 39.0795C121.378 38.8216 121.739 38.4399 121.966 37.9859C122.492 36.9439 122.492 35.7264 121.966 34.6844C121.739 34.2201 121.378 33.8384 120.934 33.5804C119.882 33.0543 118.633 33.0543 117.581 33.5804C117.117 33.8281 116.735 34.2098 116.487 34.6741C116.219 35.1899 116.085 35.7677 116.095 36.3455C116.085 36.9129 116.219 37.4804 116.487 37.9859C116.735 38.4502 117.117 38.8319 117.581 39.0795C118.633 39.6057 119.871 39.6057 120.924 39.0795H120.934ZM120.758 36.1804C120.542 36.4177 120.253 36.5725 119.943 36.624L121.078 38.4605H120.098L119.066 36.6756H118.695V38.4502H117.787V34.055H119.489C119.923 34.0241 120.346 34.1479 120.676 34.4265C120.934 34.6638 121.078 35.0145 121.068 35.3653C121.068 35.6645 120.955 35.9534 120.758 36.1804ZM118.695 36.0875H119.407C119.912 36.0875 120.16 35.8915 120.16 35.4891C120.16 35.3241 120.109 35.159 119.985 35.0455C119.82 34.9217 119.613 34.8598 119.407 34.8804H118.695V36.0875Z" fill="white"/>
</svg>
