<svg width="32" height="32" viewBox="0 0 32 32" fill="none" xmlns="http://www.w3.org/2000/svg">
<rect width="32" height="32" rx="16" fill="#8E8E8E"/>
<path d="M16 7C13.5837 7 11.625 9.01465 11.625 11.5C11.625 13.9853 13.5837 16 16 16C18.4163 16 20.375 13.9853 20.375 11.5C20.375 9.01465 18.4163 7 16 7ZM10.8594 17.8C10.3663 17.8 9.89344 18.0014 9.54475 18.36C9.19607 18.7186 9.00012 19.2049 9 19.712V20.05C9 21.7397 9.84963 23.0052 11.1525 23.821C12.4344 24.6234 14.1564 25 16 25C17.8436 25 19.5656 24.6234 20.8475 23.821C22.1504 23.0052 23 21.7397 23 20.05V19.712C23 19.4609 22.9519 19.2122 22.8585 18.9802C22.765 18.7482 22.628 18.5374 22.4554 18.3599C22.2827 18.1823 22.0777 18.0415 21.8521 17.9454C21.6266 17.8494 21.3848 17.7999 21.1406 17.8H10.8594Z" fill="#474747"/>
</svg>
